<svg width="85" height="38" viewBox="0 0 85 38" fill="none" xmlns="http://www.w3.org/2000/svg">
<rect x="0.5" y="0.5" width="84" height="37" fill="black"/>
<rect x="0.5" y="0.5" width="84" height="37" stroke="#D0D0D0"/>
<path d="M32.664 23.212V15.388C32.664 15.232 32.784 15.1 32.952 15.1H33.648C33.804 15.1 33.936 15.232 33.936 15.388V18.712L37.32 15.22C37.368 15.16 37.452 15.1 37.548 15.1H38.448C38.664 15.1 38.784 15.352 38.616 15.532L35.148 19.06L38.82 23.104C38.916 23.224 38.856 23.5 38.604 23.5H37.644C37.524 23.5 37.452 23.452 37.428 23.416L33.936 19.48V23.212C33.936 23.368 33.804 23.5 33.648 23.5H32.952C32.784 23.5 32.664 23.368 32.664 23.212ZM40.2851 16.744C39.9011 16.744 39.6011 16.432 39.6011 16.048C39.6011 15.652 39.9011 15.34 40.2851 15.34C40.6811 15.34 40.9931 15.652 40.9931 16.048C40.9931 16.432 40.6811 16.744 40.2851 16.744ZM39.7331 23.272V18.928C39.7331 18.808 39.8411 18.7 39.9611 18.7H40.6451C40.7651 18.7 40.8731 18.808 40.8731 18.928V23.272C40.8731 23.392 40.7651 23.5 40.6451 23.5H39.9611C39.8411 23.5 39.7331 23.392 39.7331 23.272ZM42.4284 23.272V18.928C42.4284 18.808 42.5364 18.7 42.6564 18.7H43.0044C43.1004 18.7 43.1724 18.76 43.1964 18.844L43.3404 19.252C43.4244 19.156 44.0604 18.58 45.0204 18.58C46.4844 18.58 47.0244 19.612 47.0244 20.86V23.272C47.0244 23.392 46.9164 23.5 46.7964 23.5H46.1124C45.9804 23.5 45.8844 23.392 45.8844 23.272V20.812C45.8844 20.044 45.5124 19.624 44.8884 19.624C44.1324 19.624 43.6164 20.176 43.5564 20.344V23.272C43.5564 23.428 43.4844 23.5 43.2804 23.5H42.6564C42.5364 23.5 42.4284 23.392 42.4284 23.272ZM48.0422 23.212C48.0422 22.288 48.8942 21.844 48.8942 21.844C48.8942 21.844 48.5222 21.4 48.5222 20.68C48.5222 19.564 49.3622 18.58 50.5862 18.58H52.6862C52.8182 18.58 52.9142 18.676 52.9142 18.808V19.108C52.9142 19.192 52.8662 19.3 52.7822 19.312L52.1222 19.492C52.1222 19.492 52.6382 19.876 52.6382 20.776C52.6382 21.796 51.8462 22.732 50.5982 22.732C49.9862 22.732 49.6502 22.54 49.5542 22.54C49.4702 22.54 49.0622 22.744 49.0622 23.128C49.0622 23.404 49.2782 23.62 49.6382 23.62H51.2702C52.3142 23.62 53.1542 24.184 53.1542 25.228C53.1542 26.284 52.1942 27.22 50.5982 27.22C48.9062 27.22 48.2222 26.356 48.2222 25.576C48.2222 24.856 48.8102 24.52 48.9302 24.448V24.412C48.6782 24.34 48.0422 24.016 48.0422 23.212ZM50.6102 21.808C51.2102 21.808 51.6182 21.352 51.6182 20.704C51.6182 20.056 51.2102 19.6 50.6102 19.6C49.9982 19.6 49.5542 20.056 49.5542 20.704C49.5542 21.352 49.9982 21.808 50.6102 21.808ZM49.3382 25.384C49.3382 25.876 49.8542 26.236 50.5862 26.236C51.3182 26.236 51.9542 25.864 51.9542 25.288C51.9542 25.096 51.8342 24.604 51.0542 24.604C50.7062 24.604 50.3462 24.604 49.9982 24.628C49.9262 24.652 49.3382 24.844 49.3382 25.384Z" fill="white"/>
</svg>
